<svg xmlns="http://www.w3.org/2000/svg" xmlns:xlink="http://www.w3.org/1999/xlink" version="1.1" x="0px" y="0px" viewBox="0 0 1536 2048" style="enable-background:new 0 0 1536 2048;" xml:space="preserve">
<style type="text/css">
	.st0{fill:#EEEEEE;}
	.st1{fill:#373B40;}
	.st2{font-family:'SFUIDisplay-Regular';}
	.st3{font-size:72px;}
	.st4{letter-spacing:1;}
	.st5{opacity:0.3;fill:#5F6367;}
	.st6{fill:#DEDDDD;}
	.st7{opacity:0.3;fill:#373B40;}
	.st8{fill:#FFFFFF;}
	.st9{fill:none;stroke:#373B40;stroke-width:5.6175;stroke-linecap:round;stroke-linejoin:round;stroke-miterlimit:10;}
	.st10{fill:none;stroke:#373B40;stroke-width:20.7267;stroke-linecap:round;stroke-linejoin:round;stroke-miterlimit:10;}
	.st11{fill:#5F6367;}
</style>
<g id="Layer_2">
	<rect x="0" y="0" class="st0" width="1536" height="2048"/>
	<g>
		<text class="st1 st2 st3 st4" transform="matrix(1 0 0 1 344 1377)">Please Rotate Your Device</text>
		<g>
			<path class="st5" d="M614.8,992.1c-9.7,0-17.7,8-17.7,17.7s8,17.7,17.7,17.7s17.7-8,17.7-17.7S624.4,992.1,614.8,992.1z"/>
			<path class="st6" d="M729.7,672.5H499.8c-4.7,0-8.8,4.1-8.8,8.8v284.3c0,4.7,4.1,8.9,8.8,8.9h229.9c4.7,0,8.8-4.1,8.8-8.9V681.3     C738.5,676.6,734.4,672.5,729.7,672.5z"/>
			<path class="st7" d="M764.9,654.6L764.9,654.6L764.9,654.6c-8.2-10.6-20.9-17.5-35.1-17.5H499.8c-24.3,0-44.2,19.9-44.2,44.2     v319.6c0,24.3,19.9,44.2,44.2,44.2h229.9c14.2,0,27-6.8,35.1-17.4h0.1v-0.1c5.7-7.4,9.1-16.7,9.1-26.7V681.3     C773.9,671.3,770.5,662,764.9,654.6z M614.8,1027.5c-9.7,0-17.7-8-17.7-17.7s8-17.7,17.7-17.7s17.7,8,17.7,17.7     S624.4,1027.5,614.8,1027.5z M738.5,965.6c0,4.7-4.1,8.9-8.8,8.9H499.8c-4.7,0-8.8-4.1-8.8-8.9V681.3c0-4.7,4.1-8.8,8.8-8.8     h229.9c4.7,0,8.8,4.1,8.8,8.8V965.6z"/>
			<circle class="st8" cx="614.8" cy="815.3" r="66.4"/>
			<path class="st9" d="M632.8,855.8c0-9.9-8-18-18-18c-9.9,0-18,8-18,18"/>
			<g>
				<path class="st1" d="M573,816.1c0.1,0,0.2,0.1,0.2,0.2s-0.1,0.2-0.2,0.2s-0.2-0.1-0.2-0.2S572.9,816.1,573,816.1 M573,808.6      c-4.2,0-7.6,3.4-7.6,7.6s3.4,7.6,7.6,7.6c4.2,0,7.6-3.4,7.6-7.6S577.2,808.6,573,808.6L573,808.6z"/>
			</g>
			<g>
				<path class="st1" d="M656.7,816.1c0.1,0,0.2,0.1,0.2,0.2s-0.1,0.2-0.2,0.2s-0.2-0.1-0.2-0.2S656.6,816.1,656.7,816.1       M656.7,808.6c-4.2,0-7.6,3.4-7.6,7.6s3.4,7.6,7.6,7.6c4.2,0,7.6-3.4,7.6-7.6S660.9,808.6,656.7,808.6L656.7,808.6z"/>
			</g>
			<path class="st10" d="M825.6,668.6c89.2,0,161.5,72.3,161.5,161.5"/>
			<polyline class="st10" points="948.5,807 987.2,845.7 1025.8,807    "/>
			<path class="st11" d="M707.7,1029c-9.7,0-17.7,8-17.7,17.7c0,9.7,8,17.7,17.7,17.7s17.7-8,17.7-17.7     C725.4,1037,717.3,1029,707.7,1029z"/>
			<path class="st6" d="M1036.2,922.9H751.9c-4.7,0-8.9,4.1-8.9,8.8v229.9c0,4.7,4.1,8.8,8.9,8.8h284.3c4.7,0,8.8-4.1,8.8-8.8V931.7     C1045,927.1,1040.9,922.9,1036.2,922.9z"/>
			<g>
				<path class="st8" d="M689.7,1196.7L689.7,1196.7C689.7,1196.7,689.7,1196.7,689.7,1196.7L689.7,1196.7z"/>
				<polygon class="st8" points="1063,1196.7 1063,1196.7 1063,1196.7     "/>
				<path class="st1" d="M1036.2,887.5H716.5c-24.3,0-44.2,19.9-44.2,44.2v229.9c0,14.2,6.8,27,17.4,35.1c0,0,0,0,0.1,0      c7.5,5.7,16.7,9.1,26.8,9.1h319.6c10.1,0,19.3-3.4,26.8-9.1v0c10.6-8.1,17.4-20.8,17.4-35.1V931.7      C1080.4,907.4,1060.5,887.5,1036.2,887.5z M1045,931.7v229.9c0,4.7-4.1,8.8-8.8,8.8H751.9c-4.7,0-8.9-4.1-8.9-8.8V931.7      c0-4.7,4.1-8.8,8.9-8.8h284.3C1040.9,922.9,1045,927.1,1045,931.7z M725.4,1046.7c0,9.7-8,17.7-17.7,17.7s-17.7-8-17.7-17.7      c0-9.7,8-17.7,17.7-17.7S725.4,1037,725.4,1046.7z"/>
			</g>
			<circle class="st8" cx="887" cy="1046.7" r="66.4"/>
			<path class="st9" d="M869.1,1069.2c0,9.9,8,18,18,18c9.9,0,18-8,18-18"/>
			<g>
				<path class="st1" d="M845.2,1047.5c0.1,0,0.2,0.1,0.2,0.2s-0.1,0.2-0.2,0.2c-0.1,0-0.2-0.1-0.2-0.2S845.1,1047.5,845.2,1047.5       M845.2,1040c-4.2,0-7.6,3.4-7.6,7.6c0,4.2,3.4,7.6,7.6,7.6c4.2,0,7.6-3.4,7.6-7.6C852.9,1043.5,849.4,1040,845.2,1040      L845.2,1040z"/>
			</g>
			<g>
				<path class="st1" d="M928.9,1047.5c0.1,0,0.2,0.1,0.2,0.2s-0.1,0.2-0.2,0.2s-0.2-0.1-0.2-0.2S928.8,1047.5,928.9,1047.5       M928.9,1040c-4.2,0-7.6,3.4-7.6,7.6c0,4.2,3.4,7.6,7.6,7.6c4.2,0,7.6-3.4,7.6-7.6C936.5,1043.5,933.1,1040,928.9,1040      L928.9,1040z"/>
			</g>
		</g>
	</g>
</g>
</svg>