<?xml version="1.0" encoding="utf-8"?>
<svg xmlns="http://www.w3.org/2000/svg" xmlns:svg="http://www.w3.org/2000/svg" width="40" height="40">
 <g>
  <path fill="#{promotions_icon}" d="m9.00583,0c2,0 3.9,0 5.9,0c1.9,0 3.7,0.7 5.1,2.1c5.6,5.6 11.3,11.2 16.9,16.9c1.2,1 1.3,2.8 0.3,4c-0.1,0.1 -0.2,0.2 -0.3,0.3c-0.6,0.6 -1.3,1.3 -1.9,1.9c-4,4 -8,8 -12,12c-1,1.1 -2.7,1.2 -3.8,0.2c-0.1,-0.1 -0.1,-0.1 -0.2,-0.2c-4,-4 -8,-8 -12,-12c-1.6,-1.6 -3.3,-3.2 -4.9,-4.9c-1.4,-1.3 -2.1,-3.2 -2.1,-5.1c0,-4.1 0,-8.2 0,-12.2c-0.1,-1.5 1.1,-2.8 2.6,-2.9c0.1,0 0.2,0 0.3,0c2,-0.1 4,-0.1 6.1,-0.1zm5,10c0.1,-2.3 -1.8,-4.3 -4.1,-4.3c-2.3,-0.1 -4.3,1.8 -4.4,4.1s1.8,4.3 4.1,4.4l0.1,0c2.3,0 4.2,-1.8 4.3,-4.2l0,0l0,0z"/>
 </g>
</svg>