<?xml version="1.0" encoding="UTF-8" ?>
<!DOCTYPE svg PUBLIC "-//W3C//DTD SVG 1.1//EN" "http://www.w3.org/Graphics/SVG/1.1/DTD/svg11.dtd">
<svg width="257px" height="258px" viewBox="0 0 257 258" version="1.1" xmlns="http://www.w3.org/2000/svg">
<path fill="#{primary_text}" d=" M 102.49 0.00 L 105.13 0.00 C 105.57 0.61 106.45 1.83 106.88 2.44 C 102.01 5.91 95.94 6.55 90.47 8.62 C 80.38 12.26 70.83 17.22 61.64 22.73 C 57.01 45.86 57.08 69.57 57.81 93.05 C 58.52 108.04 58.93 123.05 59.64 138.04 C 59.62 140.38 59.88 143.25 57.82 144.87 C 55.38 147.04 50.43 147.86 48.78 144.35 C 48.18 140.93 48.93 137.42 48.73 133.97 C 47.92 99.46 44.45 64.68 49.81 30.35 C 37.96 38.43 26.26 46.90 16.23 57.22 C 12.78 60.37 10.03 64.50 10.50 69.40 C 7.38 71.57 3.53 72.59 0.00 70.74 L 0.00 67.27 C 0.89 64.62 2.20 62.12 4.02 60.00 C 18.01 44.00 36.05 32.41 53.63 20.81 C 68.97 11.96 84.94 3.40 102.49 0.00 Z" />
<path fill="#{primary_text}" d=" M 158.42 19.59 C 160.56 18.51 163.36 18.22 165.39 19.71 C 166.96 20.98 166.39 23.24 166.57 25.00 C 166.39 30.18 166.91 35.40 166.27 40.55 C 164.84 43.58 160.67 44.35 157.77 43.20 C 155.68 42.34 156.02 39.79 155.89 37.97 C 155.96 32.94 155.71 27.90 156.04 22.88 C 156.00 21.37 157.16 20.22 158.42 19.59 Z" />
<path fill="#{primary_text}" d=" M 135.04 26.07 C 137.57 23.42 143.17 21.80 145.49 25.45 C 146.38 30.98 146.03 36.94 144.21 42.26 C 141.86 45.45 137.24 45.90 133.77 44.45 C 134.67 39.99 135.33 35.48 135.44 30.92 C 134.78 29.40 133.38 27.49 135.04 26.07 Z" />
<path fill="#{primary_text}" d=" M 195.36 28.41 C 197.55 27.51 200.56 26.71 202.50 28.54 C 203.86 43.15 197.80 58.17 186.94 68.00 C 176.04 78.06 160.72 82.72 146.03 81.38 C 133.62 80.31 120.68 77.26 110.87 69.16 C 103.84 63.49 99.76 54.09 101.27 45.10 C 103.13 41.87 108.13 40.80 111.24 42.84 C 111.74 47.38 111.35 52.22 113.61 56.38 C 117.77 64.98 126.81 69.85 135.61 72.46 C 145.82 75.33 156.97 76.44 167.20 73.14 C 178.52 69.39 186.40 59.02 190.08 48.03 C 191.91 42.91 192.12 37.43 192.39 32.04 C 192.23 30.23 193.92 29.10 195.36 28.41 Z" />
<path fill="#{primary_text}" d=" M 217.71 59.88 C 217.77 55.00 224.23 54.36 227.91 54.99 C 228.32 58.31 228.20 61.68 228.20 65.02 C 228.05 75.08 228.66 85.12 228.94 95.17 C 234.11 94.75 239.80 94.59 244.28 97.66 C 247.86 100.01 249.46 104.94 247.74 108.90 C 245.24 115.02 239.64 119.00 234.64 122.98 C 238.89 129.75 242.26 137.17 247.90 142.96 C 250.93 142.43 254.23 141.49 257.00 143.40 L 257.00 146.05 C 253.33 148.81 248.80 151.41 244.05 149.99 C 236.43 148.14 232.89 140.41 229.49 134.13 C 228.64 136.96 228.14 139.98 226.60 142.55 C 224.09 145.46 219.86 144.65 216.45 144.78 C 221.37 132.03 219.03 118.25 218.82 104.98 C 218.61 89.94 217.21 74.93 217.71 59.88 Z" />
<path fill="#{primary_text}" d=" M 66.31 61.20 C 68.82 58.41 72.87 58.46 76.32 58.41 C 76.57 71.83 77.34 85.24 78.19 98.63 C 86.14 95.12 95.89 93.95 103.80 98.18 C 107.88 100.20 110.37 104.57 110.52 109.07 C 111.01 118.27 109.44 127.44 107.52 136.40 C 106.83 138.95 106.48 141.72 104.97 143.95 C 102.28 146.42 98.35 146.51 95.05 145.37 C 97.51 135.40 99.71 125.30 100.24 115.02 C 100.22 111.91 100.09 108.45 98.08 105.90 C 94.61 101.59 87.80 101.45 83.36 104.26 C 79.81 106.57 79.19 111.16 78.94 115.04 C 78.70 124.36 79.22 133.78 77.95 143.03 C 75.70 146.29 71.08 146.18 67.58 145.56 C 70.08 121.40 67.06 97.18 66.24 73.03 C 66.21 69.09 65.86 65.12 66.31 61.20 Z" />
<path fill="#{primary_text}" d=" M 128.39 97.34 C 135.65 94.35 143.93 92.42 151.68 94.48 C 155.01 95.27 157.10 98.10 158.68 100.91 C 158.05 101.85 157.43 102.78 156.80 103.72 C 159.99 115.28 160.04 127.37 161.86 139.16 C 163.28 144.18 155.82 146.93 152.35 144.49 C 150.68 141.29 150.94 137.43 150.41 133.92 C 146.20 140.96 138.21 145.36 129.99 144.90 C 124.27 145.07 119.72 140.12 118.34 134.92 C 116.76 128.74 116.94 122.25 117.40 115.94 C 118.09 108.61 121.18 100.48 128.39 97.34 Z" />
<path fill="#{primary_text}" d=" M 165.41 98.27 C 168.06 95.59 172.09 95.67 175.59 95.64 C 175.66 97.76 175.73 99.88 175.80 102.01 C 181.96 98.77 188.99 96.77 195.98 97.72 C 200.26 98.25 204.73 100.08 207.13 103.85 C 210.24 108.59 209.93 114.51 209.83 119.93 C 209.48 127.64 209.26 135.74 205.77 142.78 C 203.37 146.05 198.77 145.52 195.19 145.55 C 199.35 135.60 200.68 124.57 199.09 113.90 C 198.40 110.26 197.06 106.26 193.70 104.25 C 188.03 100.65 179.31 104.30 178.05 110.94 C 176.85 115.23 178.03 119.60 178.58 123.89 C 179.54 130.28 179.98 136.74 180.25 143.20 C 177.09 145.19 173.45 145.89 169.75 145.66 C 169.78 129.74 165.03 114.17 165.41 98.27 Z" />
<path fill="#{primary_background}" d=" M 132.11 103.12 C 136.11 99.80 142.04 99.63 146.73 101.51 C 145.24 107.92 146.12 114.61 144.63 121.03 C 143.37 126.82 141.44 132.91 137.06 137.10 C 135.28 139.02 132.42 137.90 131.11 136.03 C 127.66 131.47 127.57 125.45 127.40 119.98 C 127.47 114.15 128.10 107.68 132.11 103.12 Z" />
<path fill="#{primary_background}" d=" M 229.84 101.99 C 234.01 100.53 239.20 105.22 237.35 109.53 C 235.91 113.10 232.66 115.45 229.83 117.89 C 229.85 112.60 228.77 107.22 229.84 101.99 Z" />
<path fill="#{primary_text}" d=" M 128.41 154.53 C 132.51 152.11 137.23 150.11 142.09 150.99 C 148.56 151.78 154.14 156.58 156.16 162.73 C 160.91 176.95 153.77 193.66 140.74 200.77 C 136.32 203.23 130.53 203.55 126.14 200.85 C 119.94 197.10 116.13 190.13 115.57 182.99 C 114.84 174.61 116.50 166.25 118.05 158.05 C 119.04 153.57 124.82 153.14 128.41 154.53 Z" />
<path fill="#{primary_text}" d=" M 194.80 156.16 C 195.37 151.08 205.59 150.11 205.38 155.96 C 205.49 170.33 205.81 184.69 205.86 199.06 C 206.65 203.75 200.58 205.65 197.05 204.04 C 194.73 202.75 195.61 199.78 195.27 197.63 C 191.81 200.49 187.66 202.81 183.05 202.80 C 175.55 203.42 167.93 198.81 165.21 191.76 C 161.03 180.94 162.92 168.72 167.41 158.31 C 169.21 153.94 174.80 153.91 178.76 154.51 C 174.36 164.90 171.17 176.83 175.26 187.85 C 176.75 192.31 180.65 196.98 185.71 196.80 C 189.58 193.23 191.09 187.92 192.13 182.93 C 194.10 174.13 193.79 165.06 194.80 156.16 Z" />
<path fill="#{primary_text}" d=" M 98.63 155.70 C 101.23 153.86 104.44 154.58 107.34 155.00 C 107.61 180.68 110.73 206.26 110.44 231.95 C 110.22 238.41 108.43 245.12 103.93 249.95 C 99.38 254.94 92.66 257.28 86.09 258.00 L 81.54 258.00 C 75.02 257.35 67.94 253.71 66.21 246.93 C 64.55 241.29 68.58 235.87 73.33 233.29 C 76.71 231.46 81.20 229.25 84.73 231.93 C 84.19 236.79 76.16 236.56 76.33 241.95 C 76.73 249.31 86.03 254.03 92.35 250.33 C 97.95 247.05 99.71 240.10 100.11 234.05 C 100.75 221.68 99.61 209.31 98.98 196.95 C 94.86 199.78 90.10 202.12 84.95 201.61 C 77.65 201.35 70.88 196.55 67.95 189.89 C 63.47 180.04 64.00 168.17 68.56 158.45 C 70.71 154.53 75.71 155.27 79.46 155.30 C 76.09 163.66 73.90 172.97 76.45 181.88 C 78.07 188.13 82.22 194.60 89.00 195.91 C 91.95 193.65 93.33 190.02 94.29 186.57 C 96.43 178.21 96.65 169.53 96.80 160.96 C 96.99 159.14 96.62 156.63 98.63 155.70 Z" />
<path fill="#{primary_background}" d=" M 133.98 159.86 C 135.99 157.93 139.26 157.94 141.46 159.56 C 145.64 162.15 147.20 167.32 147.22 171.99 C 147.13 178.75 145.10 185.53 141.22 191.09 C 139.89 192.95 138.28 194.83 136.01 195.52 C 132.54 195.30 130.35 192.05 128.72 189.34 C 125.41 183.87 125.37 177.25 125.94 171.08 C 130.61 168.90 130.11 162.80 133.98 159.86 Z" />
</svg>
