<svg xmlns="http://www.w3.org/2000/svg" xmlns:xlink="http://www.w3.org/1999/xlink" x="0" y="0" width="50" height="56" viewBox="0 0 50 56" xml:space="preserve"><path d="M96.5,43.31"/><g><polygon fill="#373A40" points="45.75,16.463 25,16.463 4.25,16.463 1,55.344 25,55.343 49,55.344"/><path fill="#373A40" d="M32.867,3.259C29.761,0.878,26.551,0.62,25,0.66c-1.551-0.04-4.761,0.219-7.867,2.6c-3.948,3.028-6.332,8.345-7.083,15.804l2.984,0.301c0.663-6.567,2.639-11.171,5.874-13.685c2.17-1.687,4.385-2.003,5.609-2.028l0.007,0.044C24.553,3.691,24.726,3.668,25,3.656c0.274,0.012,0.447,0.035,0.476,0.039l0.007-0.044c1.224,0.025,3.438,0.341,5.609,2.028c3.235,2.514,5.211,7.118,5.874,13.685l2.984-0.301C39.198,11.604,36.815,6.287,32.867,3.259z"/></g></svg>
